<svg width="91" height="24" viewBox="0 0 91 24" fill="none" xmlns="http://www.w3.org/2000/svg">
<path d="M19.7274 20.4471C19.2716 19.1713 18.2672 18.0439 16.8701 17.2399C15.4729 16.4358 13.7611 16 12 16C10.2389 16 8.52706 16.4358 7.12991 17.2399C5.73276 18.0439 4.72839 19.1713 4.27259 20.4471" stroke="#5F5F5F" stroke-width="2" stroke-linecap="round"/>
<circle cx="12" cy="8" r="4" stroke="#5F5F5F" stroke-width="2" stroke-linecap="round"/>
<path d="M38.846 14.83H34.59L33.806 17H32.462L35.99 7.298H37.46L40.974 17H39.63L38.846 14.83ZM38.482 13.794L36.718 8.866L34.954 13.794H38.482ZM42.0356 13.15C42.0356 12.3567 42.1943 11.666 42.5116 11.078C42.8289 10.4807 43.2676 10.0187 43.8276 9.692C44.3969 9.36533 45.0456 9.202 45.7736 9.202C46.7163 9.202 47.4909 9.43067 48.0976 9.888C48.7136 10.3453 49.1196 10.98 49.3156 11.792H47.9436C47.8129 11.3253 47.5563 10.9567 47.1736 10.686C46.8003 10.4153 46.3336 10.28 45.7736 10.28C45.0456 10.28 44.4576 10.532 44.0096 11.036C43.5616 11.5307 43.3376 12.2353 43.3376 13.15C43.3376 14.074 43.5616 14.788 44.0096 15.292C44.4576 15.796 45.0456 16.048 45.7736 16.048C46.3336 16.048 46.8003 15.9173 47.1736 15.656C47.5469 15.3947 47.8036 15.0213 47.9436 14.536H49.3156C49.1103 15.32 48.6996 15.95 48.0836 16.426C47.4676 16.8927 46.6976 17.126 45.7736 17.126C45.0456 17.126 44.3969 16.9627 43.8276 16.636C43.2676 16.3093 42.8289 15.8473 42.5116 15.25C42.1943 14.6527 42.0356 13.9527 42.0356 13.15ZM50.5395 13.15C50.5395 12.3567 50.6982 11.666 51.0155 11.078C51.3328 10.4807 51.7715 10.0187 52.3315 9.692C52.9008 9.36533 53.5495 9.202 54.2775 9.202C55.2202 9.202 55.9948 9.43067 56.6015 9.888C57.2175 10.3453 57.6235 10.98 57.8195 11.792H56.4475C56.3168 11.3253 56.0602 10.9567 55.6775 10.686C55.3042 10.4153 54.8375 10.28 54.2775 10.28C53.5495 10.28 52.9615 10.532 52.5135 11.036C52.0655 11.5307 51.8415 12.2353 51.8415 13.15C51.8415 14.074 52.0655 14.788 52.5135 15.292C52.9615 15.796 53.5495 16.048 54.2775 16.048C54.8375 16.048 55.3042 15.9173 55.6775 15.656C56.0508 15.3947 56.3075 15.0213 56.4475 14.536H57.8195C57.6142 15.32 57.2035 15.95 56.5875 16.426C55.9715 16.8927 55.2015 17.126 54.2775 17.126C53.5495 17.126 52.9008 16.9627 52.3315 16.636C51.7715 16.3093 51.3328 15.8473 51.0155 15.25C50.6982 14.6527 50.5395 13.9527 50.5395 13.15ZM62.8654 17.126C62.1467 17.126 61.4934 16.9627 60.9054 16.636C60.3267 16.3093 59.8694 15.8473 59.5334 15.25C59.2067 14.6433 59.0434 13.9433 59.0434 13.15C59.0434 12.366 59.2114 11.6753 59.5474 11.078C59.8927 10.4713 60.3594 10.0093 60.9474 9.692C61.5354 9.36533 62.1934 9.202 62.9214 9.202C63.6494 9.202 64.3074 9.36533 64.8954 9.692C65.4834 10.0093 65.9454 10.4667 66.2814 11.064C66.6267 11.6613 66.7994 12.3567 66.7994 13.15C66.7994 13.9433 66.6221 14.6433 66.2674 15.25C65.9221 15.8473 65.4507 16.3093 64.8534 16.636C64.2561 16.9627 63.5934 17.126 62.8654 17.126ZM62.8654 16.006C63.3227 16.006 63.7521 15.8987 64.1534 15.684C64.5547 15.4693 64.8767 15.1473 65.1194 14.718C65.3714 14.2887 65.4974 13.766 65.4974 13.15C65.4974 12.534 65.3761 12.0113 65.1334 11.582C64.8907 11.1527 64.5734 10.8353 64.1814 10.63C63.7894 10.4153 63.3647 10.308 62.9074 10.308C62.4407 10.308 62.0114 10.4153 61.6194 10.63C61.2367 10.8353 60.9287 11.1527 60.6954 11.582C60.4621 12.0113 60.3454 12.534 60.3454 13.15C60.3454 13.7753 60.4574 14.3027 60.6814 14.732C60.9147 15.1613 61.2227 15.4833 61.6054 15.698C61.9881 15.9033 62.4081 16.006 62.8654 16.006ZM75.2785 9.328V17H74.0045V15.866C73.7618 16.258 73.4212 16.566 72.9825 16.79C72.5532 17.0047 72.0772 17.112 71.5545 17.112C70.9572 17.112 70.4205 16.9907 69.9445 16.748C69.4685 16.496 69.0905 16.1227 68.8105 15.628C68.5398 15.1333 68.4045 14.5313 68.4045 13.822V9.328H69.6645V13.654C69.6645 14.41 69.8558 14.9933 70.2385 15.404C70.6212 15.8053 71.1438 16.006 71.8065 16.006C72.4878 16.006 73.0245 15.796 73.4165 15.376C73.8085 14.956 74.0045 14.3447 74.0045 13.542V9.328H75.2785ZM81.1676 9.188C82.1009 9.188 82.8569 9.47267 83.4356 10.042C84.0142 10.602 84.3036 11.414 84.3036 12.478V17H83.0436V12.66C83.0436 11.8947 82.8522 11.3113 82.4696 10.91C82.0869 10.4993 81.5642 10.294 80.9016 10.294C80.2296 10.294 79.6929 10.504 79.2916 10.924C78.8996 11.344 78.7036 11.9553 78.7036 12.758V17H77.4296V9.328H78.7036V10.42C78.9556 10.028 79.2962 9.72467 79.7256 9.51C80.1642 9.29533 80.6449 9.188 81.1676 9.188ZM87.9386 10.378V14.9C87.9386 15.2733 88.018 15.5393 88.1766 15.698C88.3353 15.8473 88.6106 15.922 89.0026 15.922H89.9406V17H88.7926C88.0833 17 87.5513 16.8367 87.1966 16.51C86.842 16.1833 86.6646 15.6467 86.6646 14.9V10.378H85.6706V9.328H86.6646V7.396H87.9386V9.328H89.9406V10.378H87.9386Z" fill="#3E3E3E"/>
</svg>
