<svg width="24" height="24" viewBox="0 0 24 24" fill="none" xmlns="http://www.w3.org/2000/svg">
<circle cx="12" cy="12" r="12" fill="#EB6D20"/>
<path d="M6.456 8.32V7.324H8.712V16H7.608V8.32H6.456ZM15.4238 9.388C15.2478 8.5 14.6998 8.056 13.7798 8.056C13.0678 8.056 12.5358 8.332 12.1838 8.884C11.8318 9.428 11.6598 10.328 11.6678 11.584C11.8518 11.168 12.1558 10.844 12.5798 10.612C13.0118 10.372 13.4918 10.252 14.0198 10.252C14.8438 10.252 15.4998 10.508 15.9878 11.02C16.4838 11.532 16.7318 12.24 16.7318 13.144C16.7318 13.688 16.6238 14.176 16.4078 14.608C16.1998 15.04 15.8798 15.384 15.4478 15.64C15.0238 15.896 14.5078 16.024 13.8998 16.024C13.0758 16.024 12.4318 15.84 11.9678 15.472C11.5038 15.104 11.1798 14.596 10.9958 13.948C10.8118 13.3 10.7198 12.5 10.7198 11.548C10.7198 8.612 11.7438 7.144 13.7918 7.144C14.5758 7.144 15.1918 7.356 15.6398 7.78C16.0878 8.204 16.3518 8.74 16.4318 9.388H15.4238ZM13.7918 11.176C13.4478 11.176 13.1238 11.248 12.8198 11.392C12.5158 11.528 12.2678 11.74 12.0758 12.028C11.8918 12.308 11.7998 12.652 11.7998 13.06C11.7998 13.668 11.9758 14.164 12.3278 14.548C12.6798 14.924 13.1838 15.112 13.8398 15.112C14.3998 15.112 14.8438 14.94 15.1718 14.596C15.5078 14.244 15.6758 13.772 15.6758 13.18C15.6758 12.556 15.5158 12.068 15.1958 11.716C14.8758 11.356 14.4078 11.176 13.7918 11.176Z" fill="white"/>
</svg>
