<svg width="90" height="24" viewBox="0 0 90 24" fill="none" xmlns="http://www.w3.org/2000/svg">
<path d="M8 12L8 8C8 5.79086 9.79086 4 12 4V4C14.2091 4 16 5.79086 16 8L16 12" stroke="#5F5F5F" stroke-width="2" stroke-linecap="round"/>
<path d="M3.69435 12.6678C3.83942 10.9269 3.91196 10.0565 4.48605 9.52824C5.06013 9 5.9336 9 7.68053 9H16.3195C18.0664 9 18.9399 9 19.514 9.52824C20.088 10.0565 20.1606 10.9269 20.3057 12.6678L20.8195 18.8339C20.904 19.8474 20.9462 20.3542 20.6491 20.6771C20.352 21 19.8435 21 18.8264 21H5.1736C4.15655 21 3.64802 21 3.35092 20.6771C3.05382 20.3542 3.09605 19.8474 3.18051 18.8339L3.69435 12.6678Z" stroke="#5F5F5F" stroke-width="2"/>
<path d="M36.172 17.098C35.528 17.098 34.9493 16.986 34.436 16.762C33.932 16.5287 33.5353 16.2113 33.246 15.81C32.9567 15.3993 32.8073 14.928 32.798 14.396H34.156C34.2027 14.8533 34.3893 15.2407 34.716 15.558C35.052 15.866 35.5373 16.02 36.172 16.02C36.7787 16.02 37.2547 15.8707 37.6 15.572C37.9547 15.264 38.132 14.872 38.132 14.396C38.132 14.0227 38.0293 13.7193 37.824 13.486C37.6187 13.2527 37.362 13.0753 37.054 12.954C36.746 12.8327 36.3307 12.702 35.808 12.562C35.164 12.394 34.646 12.226 34.254 12.058C33.8713 11.89 33.54 11.6287 33.26 11.274C32.9893 10.91 32.854 10.4247 32.854 9.818C32.854 9.286 32.9893 8.81467 33.26 8.404C33.5307 7.99333 33.9087 7.676 34.394 7.452C34.8887 7.228 35.4533 7.116 36.088 7.116C37.0027 7.116 37.7493 7.34467 38.328 7.802C38.916 8.25933 39.2473 8.866 39.322 9.622H37.922C37.8753 9.24867 37.6793 8.922 37.334 8.642C36.9887 8.35267 36.5313 8.208 35.962 8.208C35.43 8.208 34.996 8.348 34.66 8.628C34.324 8.89867 34.156 9.28133 34.156 9.776C34.156 10.1307 34.254 10.42 34.45 10.644C34.6553 10.868 34.9027 11.0407 35.192 11.162C35.4907 11.274 35.906 11.4047 36.438 11.554C37.082 11.7313 37.6 11.9087 37.992 12.086C38.384 12.254 38.72 12.52 39 12.884C39.28 13.2387 39.42 13.724 39.42 14.34C39.42 14.816 39.294 15.264 39.042 15.684C38.79 16.104 38.4167 16.4447 37.922 16.706C37.4273 16.9673 36.844 17.098 36.172 17.098ZM45.1028 9.188C45.6815 9.188 46.2041 9.314 46.6708 9.566C47.1375 9.80867 47.5015 10.1773 47.7628 10.672C48.0335 11.1667 48.1688 11.7687 48.1688 12.478V17H46.9088V12.66C46.9088 11.8947 46.7175 11.3113 46.3348 10.91C45.9521 10.4993 45.4295 10.294 44.7668 10.294C44.0948 10.294 43.5581 10.504 43.1568 10.924C42.7648 11.344 42.5688 11.9553 42.5688 12.758V17H41.2948V6.64H42.5688V10.42C42.8208 10.028 43.1661 9.72467 43.6048 9.51C44.0528 9.29533 44.5521 9.188 45.1028 9.188ZM53.5959 17.126C52.8772 17.126 52.2239 16.9627 51.6359 16.636C51.0572 16.3093 50.5999 15.8473 50.2639 15.25C49.9372 14.6433 49.7739 13.9433 49.7739 13.15C49.7739 12.366 49.9419 11.6753 50.2779 11.078C50.6232 10.4713 51.0899 10.0093 51.6779 9.692C52.2659 9.36533 52.9239 9.202 53.6519 9.202C54.3799 9.202 55.0379 9.36533 55.6259 9.692C56.2139 10.0093 56.6759 10.4667 57.0119 11.064C57.3572 11.6613 57.5299 12.3567 57.5299 13.15C57.5299 13.9433 57.3525 14.6433 56.9979 15.25C56.6525 15.8473 56.1812 16.3093 55.5839 16.636C54.9865 16.9627 54.3239 17.126 53.5959 17.126ZM53.5959 16.006C54.0532 16.006 54.4825 15.8987 54.8839 15.684C55.2852 15.4693 55.6072 15.1473 55.8499 14.718C56.1019 14.2887 56.2279 13.766 56.2279 13.15C56.2279 12.534 56.1065 12.0113 55.8639 11.582C55.6212 11.1527 55.3039 10.8353 54.9119 10.63C54.5199 10.4153 54.0952 10.308 53.6379 10.308C53.1712 10.308 52.7419 10.4153 52.3499 10.63C51.9672 10.8353 51.6592 11.1527 51.4259 11.582C51.1925 12.0113 51.0759 12.534 51.0759 13.15C51.0759 13.7753 51.1879 14.3027 51.4119 14.732C51.6452 15.1613 51.9532 15.4833 52.3359 15.698C52.7185 15.9033 53.1385 16.006 53.5959 16.006ZM60.479 10.742C60.731 10.3033 61.1043 9.93933 61.599 9.65C62.103 9.35133 62.6863 9.202 63.349 9.202C64.0303 9.202 64.6463 9.36533 65.197 9.692C65.757 10.0187 66.1956 10.4807 66.513 11.078C66.8303 11.666 66.989 12.352 66.989 13.136C66.989 13.9107 66.8303 14.6013 66.513 15.208C66.1956 15.8147 65.757 16.286 65.197 16.622C64.6463 16.958 64.0303 17.126 63.349 17.126C62.6956 17.126 62.117 16.9813 61.613 16.692C61.1183 16.3933 60.7403 16.0247 60.479 15.586V20.64H59.205V9.328H60.479V10.742ZM65.687 13.136C65.687 12.5573 65.5703 12.0533 65.337 11.624C65.1036 11.1947 64.7863 10.868 64.385 10.644C63.993 10.42 63.559 10.308 63.083 10.308C62.6163 10.308 62.1823 10.4247 61.781 10.658C61.389 10.882 61.0716 11.2133 60.829 11.652C60.5956 12.0813 60.479 12.5807 60.479 13.15C60.479 13.7287 60.5956 14.2373 60.829 14.676C61.0716 15.1053 61.389 15.4367 61.781 15.67C62.1823 15.894 62.6163 16.006 63.083 16.006C63.559 16.006 63.993 15.894 64.385 15.67C64.7863 15.4367 65.1036 15.1053 65.337 14.676C65.5703 14.2373 65.687 13.724 65.687 13.136ZM69.3239 8.082C69.0812 8.082 68.8759 7.998 68.7079 7.83C68.5399 7.662 68.4559 7.45667 68.4559 7.214C68.4559 6.97133 68.5399 6.766 68.7079 6.598C68.8759 6.43 69.0812 6.346 69.3239 6.346C69.5572 6.346 69.7532 6.43 69.9119 6.598C70.0799 6.766 70.1639 6.97133 70.1639 7.214C70.1639 7.45667 70.0799 7.662 69.9119 7.83C69.7532 7.998 69.5572 8.082 69.3239 8.082ZM69.9399 9.328V17H68.6659V9.328H69.9399ZM75.8492 9.188C76.7825 9.188 77.5385 9.47267 78.1172 10.042C78.6959 10.602 78.9852 11.414 78.9852 12.478V17H77.7252V12.66C77.7252 11.8947 77.5339 11.3113 77.1512 10.91C76.7685 10.4993 76.2459 10.294 75.5832 10.294C74.9112 10.294 74.3745 10.504 73.9732 10.924C73.5812 11.344 73.3852 11.9553 73.3852 12.758V17H72.1112V9.328H73.3852V10.42C73.6372 10.028 73.9779 9.72467 74.4072 9.51C74.8459 9.29533 75.3265 9.188 75.8492 9.188ZM84.2303 9.202C84.8929 9.202 85.4716 9.34667 85.9663 9.636C86.4703 9.92533 86.8436 10.2893 87.0863 10.728V9.328H88.3743V17.168C88.3743 17.868 88.2249 18.4887 87.9263 19.03C87.6276 19.5807 87.1983 20.01 86.6383 20.318C86.0876 20.626 85.4436 20.78 84.7063 20.78C83.6983 20.78 82.8583 20.542 82.1863 20.066C81.5143 19.59 81.1176 18.9413 80.9963 18.12H82.2563C82.3963 18.5867 82.6856 18.96 83.1243 19.24C83.5629 19.5293 84.0903 19.674 84.7063 19.674C85.4063 19.674 85.9756 19.4547 86.4143 19.016C86.8623 18.5773 87.0863 17.9613 87.0863 17.168V15.558C86.8343 16.006 86.4609 16.3793 85.9663 16.678C85.4716 16.9767 84.8929 17.126 84.2303 17.126C83.5489 17.126 82.9283 16.958 82.3683 16.622C81.8176 16.286 81.3836 15.8147 81.0663 15.208C80.7489 14.6013 80.5903 13.9107 80.5903 13.136C80.5903 12.352 80.7489 11.666 81.0663 11.078C81.3836 10.4807 81.8176 10.0187 82.3683 9.692C82.9283 9.36533 83.5489 9.202 84.2303 9.202ZM87.0863 13.15C87.0863 12.5713 86.9696 12.0673 86.7363 11.638C86.5029 11.2087 86.1856 10.882 85.7843 10.658C85.3923 10.4247 84.9583 10.308 84.4823 10.308C84.0063 10.308 83.5723 10.42 83.1803 10.644C82.7883 10.868 82.4756 11.1947 82.2423 11.624C82.0089 12.0533 81.8923 12.5573 81.8923 13.136C81.8923 13.724 82.0089 14.2373 82.2423 14.676C82.4756 15.1053 82.7883 15.4367 83.1803 15.67C83.5723 15.894 84.0063 16.006 84.4823 16.006C84.9583 16.006 85.3923 15.894 85.7843 15.67C86.1856 15.4367 86.5029 15.1053 86.7363 14.676C86.9696 14.2373 87.0863 13.7287 87.0863 13.15Z" fill="#3E3E3E"/>
</svg>
